<svg height="512" viewBox="0 0 512 512" width="512" xmlns="http://www.w3.org/2000/svg"><g id="Seal-3" data-name="Seal"><path d="m224 248h64l-32 32z" fill="#57a4ff"/><path d="m256 88c-101.62 0-184 78.8-184 176s96 176 184 176 184-78.8 184-176-82.38-176-184-176zm116.67 88.17c5.59 16.77-6.87 36.02-27.83 43.01s-42.48-.95-48.06-17.71zm-233.56 0 75.9 25.3c-5.59 16.76-27.11 24.69-48.07 17.71s-33.42-26.24-27.83-43.01zm116.89 223.83c-61.22 0-128-29.49-128-75.74s57.31-83.74 128-83.74 128 37.49 128 83.74-66.78 75.74-128 75.74z" fill="#57a4ff"/><path d="m288 248-32 32-32-32z" fill="#57a4ff"/><path d="m288 248-32 32-32-32z" fill="#57a4ff"/><g fill="#004fac"><path d="m216.609 244.938a8 8 0 0 0 1.734 8.719l32 32a8 8 0 0 0 11.314 0l32-32a8 8 0 0 0 -5.657-13.657h-64a8 8 0 0 0 -7.391 4.938zm52.078 11.062-12.687 12.686-12.687-12.686z"/><path d="m267.735 369.711c-8.006 5.044-15.464 5.044-23.47 0a8 8 0 0 0 -8.53 13.538 35.912 35.912 0 0 0 40.53 0 8 8 0 0 0 -8.53-13.538z"/><path d="m497.735 288.19-50.28-11.173q.539-6.483.545-13.017 0-5.073-.292-10.08l24.628 2.052q.339.028.673.028a8 8 0 0 0 .655-15.972l-27.63-2.3c-13.346-89.058-93.473-157.728-190.034-157.728-96.592 0-176.739 68.713-190.046 157.81l-26.619 2.218a8 8 0 0 0 .656 15.972q.333 0 .674-.028l23.621-1.972q-.279 4.965-.286 10 0 6.533.545 13.017l-50.28 11.173a8 8 0 1 0 3.47 15.62l48.957-10.88a165.08 165.08 0 0 0 10.562 34.728l-17.085 9.319a8 8 0 1 0 7.662 14.046l16.381-8.935a198.635 198.635 0 0 0 41.4 52.28c37.459 34.084 84.988 53.632 130.388 53.632s92.929-19.548 130.385-53.632a198.635 198.635 0 0 0 41.4-52.28l16.381 8.935a8 8 0 0 0 7.662-14.046l-17.085-9.319a165.08 165.08 0 0 0 10.562-34.728l48.957 10.88a8.085 8.085 0 0 0 1.743.192 8 8 0 0 0 1.727-15.812zm-77.108 31.767-56.8-30.98a8 8 0 0 0 -7.662 14.046l57.565 31.4a182.6 182.6 0 0 1 -38.119 48.112c-34.033 30.973-78.75 49.465-119.611 49.465s-85.578-18.492-119.615-49.466a182.6 182.6 0 0 1 -38.119-48.112l57.565-31.4a8 8 0 1 0 -7.662-14.046l-56.8 30.98a148.966 148.966 0 0 1 -9.05-30.5l79.412-17.647a8 8 0 1 0 -3.47-15.62l-77.927 17.319c-.213-3.161-.334-6.33-.334-9.508 0-3.812.147-7.591.41-11.34l56.254-4.688a8 8 0 1 0 -1.328-15.944l-52.955 4.413c13.819-79.57 86.404-140.441 173.619-140.441 87.184 0 159.751 60.828 173.6 140.356l-51.94-4.328a8 8 0 1 0 -1.328 15.944l55.249 4.6c.267 3.777.415 7.584.415 11.424 0 3.178-.121 6.347-.334 9.508l-77.927-17.314a8 8 0 1 0 -3.47 15.62l79.412 17.647a148.966 148.966 0 0 1 -9.05 30.5z"/><path d="m304 312a8 8 0 0 0 -8 8 16 16 0 0 1 -32 0 8 8 0 0 0 -16 0 16 16 0 0 1 -32 0 8 8 0 0 0 -16 0 31.979 31.979 0 0 0 56 21.132 31.979 31.979 0 0 0 56-21.132 8 8 0 0 0 -8-8z"/><path d="m222.6 204a8 8 0 0 0 -5.06-10.119l-75.894-25.3a8 8 0 0 0 -10.121 5.059c-3.486 10.46-1.77 21.84 4.832 32.046 6.241 9.643 16.2 17.129 28.056 21.08a56.7 56.7 0 0 0 17.9 2.956 49.711 49.711 0 0 0 17.191-2.987c11.404-4.2 19.605-12.275 23.096-22.735zm-28.625 7.724c-7.38 2.72-16.08 2.672-24.5-.135s-15.413-7.989-19.687-14.589a24.266 24.266 0 0 1 -3.855-10.118l57.194 19.065a24.289 24.289 0 0 1 -9.155 5.777z"/><path d="m380.262 173.643a8 8 0 0 0 -10.12-5.06l-75.9 25.3a8 8 0 0 0 -5.055 10.117c3.487 10.46 11.688 18.535 23.093 22.737a49.719 49.719 0 0 0 17.191 2.987 56.726 56.726 0 0 0 17.9-2.956c25.11-8.368 39.864-32.201 32.891-53.125zm-62.45 38.081a24.285 24.285 0 0 1 -9.156-5.781l57.222-19.074c-1.232 10.227-10.371 20.323-23.565 24.72-8.413 2.811-17.121 2.854-24.501.135z"/></g></g></svg>