<?xml version="1.0"?>
<svg xmlns="http://www.w3.org/2000/svg" viewBox="0 0 512 512" width="512" height="512"><g id="Seal-3" data-name="Seal"><path d="M216.609,244.938a8,8,0,0,0,1.734,8.719l32,32a8,8,0,0,0,11.314,0l32-32A8,8,0,0,0,288,240H224A8,8,0,0,0,216.609,244.938ZM268.687,256,256,268.686,243.313,256Z"/><path d="M267.735,369.711c-8.006,5.044-15.464,5.044-23.47,0a8,8,0,0,0-8.53,13.538,35.912,35.912,0,0,0,40.53,0,8,8,0,0,0-8.53-13.538Z"/><path d="M497.735,288.19l-50.28-11.173q.539-6.483.545-13.017,0-5.073-.292-10.08l24.628,2.052q.339.028.673.028a8,8,0,0,0,.655-15.972l-27.63-2.3C432.688,148.67,352.561,80,256,80,159.408,80,79.261,148.713,65.954,237.81l-26.619,2.218A8,8,0,0,0,39.991,256q.333,0,.674-.028L64.286,254q-.279,4.965-.286,10,0,6.533.545,13.017L14.265,288.19a8,8,0,1,0,3.47,15.62l48.957-10.88a165.08,165.08,0,0,0,10.562,34.728l-17.085,9.319a8,8,0,1,0,7.662,14.046l16.381-8.935a198.635,198.635,0,0,0,41.4,52.28C163.071,428.452,210.6,448,256,448s92.929-19.548,130.385-53.632a198.635,198.635,0,0,0,41.4-52.28l16.381,8.935a8,8,0,0,0,7.662-14.046l-17.085-9.319a165.08,165.08,0,0,0,10.562-34.728l48.957,10.88a8.085,8.085,0,0,0,1.743.192,8,8,0,0,0,1.727-15.812Zm-77.108,31.767-56.8-30.98a8,8,0,0,0-7.662,14.046l57.565,31.4a182.6,182.6,0,0,1-38.119,48.112C341.578,413.508,296.861,432,256,432s-85.578-18.492-119.615-49.466a182.6,182.6,0,0,1-38.119-48.112l57.565-31.4a8,8,0,1,0-7.662-14.046l-56.8,30.98a148.966,148.966,0,0,1-9.05-30.5l79.412-17.647a8,8,0,1,0-3.47-15.62L80.334,273.508C80.121,270.347,80,267.178,80,264c0-3.812.147-7.591.41-11.34l56.254-4.688a8,8,0,1,0-1.328-15.944l-52.955,4.413C96.2,156.871,168.785,96,256,96c87.184,0,159.751,60.828,173.6,140.356l-51.94-4.328a8,8,0,1,0-1.328,15.944l55.249,4.6c.267,3.777.415,7.584.415,11.424,0,3.178-.121,6.347-.334,9.508L353.735,256.19a8,8,0,1,0-3.47,15.62l79.412,17.647A148.966,148.966,0,0,1,420.627,319.957Z"/><path d="M304,312a8,8,0,0,0-8,8,16,16,0,0,1-32,0,8,8,0,0,0-16,0,16,16,0,0,1-32,0,8,8,0,0,0-16,0,31.979,31.979,0,0,0,56,21.132A31.979,31.979,0,0,0,312,320,8,8,0,0,0,304,312Z"/><path d="M222.6,204a8,8,0,0,0-5.06-10.119l-75.894-25.3a8,8,0,0,0-10.121,5.059c-3.486,10.46-1.77,21.84,4.832,32.046,6.241,9.643,16.2,17.129,28.056,21.08a56.7,56.7,0,0,0,17.9,2.956,49.711,49.711,0,0,0,17.191-2.987C210.908,222.535,219.109,214.46,222.6,204Zm-28.625,7.724c-7.38,2.72-16.08,2.672-24.5-.135S154.062,203.6,149.788,197a24.266,24.266,0,0,1-3.855-10.118l57.194,19.065A24.289,24.289,0,0,1,193.972,211.724Z"/><path d="M380.262,173.643a8,8,0,0,0-10.12-5.06l-75.9,25.3A8,8,0,0,0,289.187,204c3.487,10.46,11.688,18.535,23.093,22.737a49.719,49.719,0,0,0,17.191,2.987,56.726,56.726,0,0,0,17.9-2.956C372.481,218.4,387.235,194.567,380.262,173.643Zm-62.45,38.081a24.285,24.285,0,0,1-9.156-5.781l57.222-19.074c-1.232,10.227-10.371,20.323-23.565,24.72C333.9,214.4,325.192,214.443,317.812,211.724Z"/></g></svg>
